<mxfile host="app.diagrams.net" modified="2024-01-10T12:12:50.354Z" agent="Mozilla/5.0 (Macintosh; Intel Mac OS X 10_15_7) AppleWebKit/537.36 (KHTML, like Gecko) Chrome/105.0.0.0 Safari/537.36" etag="SAo4wzHEjRJvJhykgvS5" version="22.1.15" type="github">
  <diagram name="第 1 页" id="Mc1BrW1mfo-ztDNVH1h_">
    <mxGraphModel dx="1024" dy="569" grid="1" gridSize="10" guides="1" tooltips="1" connect="1" arrows="1" fold="1" page="1" pageScale="1" pageWidth="827" pageHeight="1169" math="0" shadow="0">
      <root>
        <mxCell id="0" />
        <mxCell id="1" parent="0" />
        <mxCell id="IqBI72seaW1LNSzaQeUF-1" value="" style="endArrow=none;html=1;rounded=0;strokeWidth=2;strokeColor=#FF3333;" edge="1" parent="1">
          <mxGeometry width="50" height="50" relative="1" as="geometry">
            <mxPoint x="340" y="400" as="sourcePoint" />
            <mxPoint x="340" y="220" as="targetPoint" />
          </mxGeometry>
        </mxCell>
        <mxCell id="IqBI72seaW1LNSzaQeUF-2" value="" style="rounded=0;whiteSpace=wrap;html=1;" vertex="1" parent="1">
          <mxGeometry x="370" y="100" width="120" height="60" as="geometry" />
        </mxCell>
        <mxCell id="IqBI72seaW1LNSzaQeUF-3" value="Mark(人行横道)" style="text;html=1;strokeColor=none;fillColor=none;align=center;verticalAlign=middle;whiteSpace=wrap;rounded=0;" vertex="1" parent="1">
          <mxGeometry x="370" y="60" width="100" height="30" as="geometry" />
        </mxCell>
        <mxCell id="IqBI72seaW1LNSzaQeUF-4" value="" style="ellipse;whiteSpace=wrap;html=1;aspect=fixed;" vertex="1" parent="1">
          <mxGeometry x="425" y="125" width="10" height="10" as="geometry" />
        </mxCell>
        <mxCell id="IqBI72seaW1LNSzaQeUF-5" value="质心（0点）" style="text;html=1;strokeColor=none;fillColor=none;align=center;verticalAlign=middle;whiteSpace=wrap;rounded=0;" vertex="1" parent="1">
          <mxGeometry x="405" y="135" width="70" height="30" as="geometry" />
        </mxCell>
        <mxCell id="IqBI72seaW1LNSzaQeUF-6" value="" style="endArrow=none;html=1;rounded=0;strokeWidth=2;strokeColor=#FF3333;" edge="1" parent="1">
          <mxGeometry width="50" height="50" relative="1" as="geometry">
            <mxPoint x="720" y="40" as="sourcePoint" />
            <mxPoint x="680" y="40" as="targetPoint" />
          </mxGeometry>
        </mxCell>
        <mxCell id="IqBI72seaW1LNSzaQeUF-7" value="变更前车道线" style="text;html=1;strokeColor=none;fillColor=none;align=center;verticalAlign=middle;whiteSpace=wrap;rounded=0;" vertex="1" parent="1">
          <mxGeometry x="730" y="20" width="90" height="30" as="geometry" />
        </mxCell>
        <mxCell id="IqBI72seaW1LNSzaQeUF-8" value="" style="endArrow=none;html=1;rounded=0;strokeWidth=2;strokeColor=#66B2FF;" edge="1" parent="1">
          <mxGeometry width="50" height="50" relative="1" as="geometry">
            <mxPoint x="720" y="80" as="sourcePoint" />
            <mxPoint x="680" y="80" as="targetPoint" />
          </mxGeometry>
        </mxCell>
        <mxCell id="IqBI72seaW1LNSzaQeUF-9" value="变更后车道线" style="text;html=1;strokeColor=none;fillColor=none;align=center;verticalAlign=middle;whiteSpace=wrap;rounded=0;" vertex="1" parent="1">
          <mxGeometry x="730" y="60" width="90" height="30" as="geometry" />
        </mxCell>
        <mxCell id="IqBI72seaW1LNSzaQeUF-10" value="" style="endArrow=none;html=1;rounded=0;strokeWidth=2;strokeColor=#FF3333;" edge="1" parent="1">
          <mxGeometry width="50" height="50" relative="1" as="geometry">
            <mxPoint x="400" y="400" as="sourcePoint" />
            <mxPoint x="400" y="220" as="targetPoint" />
          </mxGeometry>
        </mxCell>
        <mxCell id="IqBI72seaW1LNSzaQeUF-11" value="" style="endArrow=none;html=1;rounded=0;strokeWidth=2;strokeColor=#66B2FF;" edge="1" parent="1">
          <mxGeometry width="50" height="50" relative="1" as="geometry">
            <mxPoint x="364" y="400" as="sourcePoint" />
            <mxPoint x="364" y="220" as="targetPoint" />
          </mxGeometry>
        </mxCell>
        <mxCell id="IqBI72seaW1LNSzaQeUF-12" value="" style="endArrow=none;html=1;rounded=0;strokeWidth=2;strokeColor=#66B2FF;" edge="1" parent="1">
          <mxGeometry width="50" height="50" relative="1" as="geometry">
            <mxPoint x="490" y="400" as="sourcePoint" />
            <mxPoint x="490" y="220" as="targetPoint" />
          </mxGeometry>
        </mxCell>
        <mxCell id="IqBI72seaW1LNSzaQeUF-14" value="" style="endArrow=none;dashed=1;html=1;rounded=0;strokeColor=#FF3333;" edge="1" parent="1">
          <mxGeometry width="50" height="50" relative="1" as="geometry">
            <mxPoint x="340" y="460" as="sourcePoint" />
            <mxPoint x="340" y="30" as="targetPoint" />
          </mxGeometry>
        </mxCell>
        <mxCell id="IqBI72seaW1LNSzaQeUF-15" value="" style="endArrow=none;dashed=1;html=1;rounded=0;strokeColor=#FF3333;" edge="1" parent="1">
          <mxGeometry width="50" height="50" relative="1" as="geometry">
            <mxPoint x="400" y="460" as="sourcePoint" />
            <mxPoint x="400" y="30" as="targetPoint" />
          </mxGeometry>
        </mxCell>
        <mxCell id="IqBI72seaW1LNSzaQeUF-16" value="" style="endArrow=none;dashed=1;html=1;rounded=0;" edge="1" parent="1">
          <mxGeometry width="50" height="50" relative="1" as="geometry">
            <mxPoint x="680" y="110" as="sourcePoint" />
            <mxPoint x="720" y="110" as="targetPoint" />
          </mxGeometry>
        </mxCell>
        <mxCell id="IqBI72seaW1LNSzaQeUF-17" value="对应线段的延长线" style="text;html=1;strokeColor=none;fillColor=none;align=center;verticalAlign=middle;whiteSpace=wrap;rounded=0;" vertex="1" parent="1">
          <mxGeometry x="730" y="95" width="100" height="30" as="geometry" />
        </mxCell>
        <mxCell id="IqBI72seaW1LNSzaQeUF-18" value="" style="endArrow=none;dashed=1;html=1;rounded=0;strokeColor=#66B2FF;fontColor=#66B2FF;" edge="1" parent="1" source="IqBI72seaW1LNSzaQeUF-27">
          <mxGeometry width="50" height="50" relative="1" as="geometry">
            <mxPoint x="364" y="460" as="sourcePoint" />
            <mxPoint x="364" y="30" as="targetPoint" />
          </mxGeometry>
        </mxCell>
        <mxCell id="IqBI72seaW1LNSzaQeUF-19" value="" style="endArrow=none;dashed=1;html=1;rounded=0;strokeColor=#66B2FF;fontColor=#66B2FF;" edge="1" parent="1" source="IqBI72seaW1LNSzaQeUF-32">
          <mxGeometry width="50" height="50" relative="1" as="geometry">
            <mxPoint x="490" y="460" as="sourcePoint" />
            <mxPoint x="490" y="30" as="targetPoint" />
          </mxGeometry>
        </mxCell>
        <mxCell id="IqBI72seaW1LNSzaQeUF-21" value="1、任取变更后一根车道线，确认该线到质心最近点与质心的连线与正北方向的夹角，用来建立矢量方向（角度范围在正负90度内为正方向）" style="text;html=1;strokeColor=none;fillColor=none;align=center;verticalAlign=middle;whiteSpace=wrap;rounded=0;" vertex="1" parent="1">
          <mxGeometry x="550" y="190" width="240" height="30" as="geometry" />
        </mxCell>
        <mxCell id="IqBI72seaW1LNSzaQeUF-22" value="2、建立矢量方向后计算其他线与正北方向夹角，并确认其在与刚才建立的矢量方向" style="text;html=1;strokeColor=none;fillColor=none;align=center;verticalAlign=middle;whiteSpace=wrap;rounded=0;" vertex="1" parent="1">
          <mxGeometry x="540" y="260" width="260" height="30" as="geometry" />
        </mxCell>
        <mxCell id="IqBI72seaW1LNSzaQeUF-26" value="" style="endArrow=classic;dashed=1;html=1;dashPattern=1 3;strokeWidth=2;rounded=0;endFill=1;" edge="1" parent="1" source="IqBI72seaW1LNSzaQeUF-30">
          <mxGeometry width="50" height="50" relative="1" as="geometry">
            <mxPoint x="310" y="129.64" as="sourcePoint" />
            <mxPoint x="570" y="130" as="targetPoint" />
          </mxGeometry>
        </mxCell>
        <mxCell id="IqBI72seaW1LNSzaQeUF-28" value="" style="endArrow=none;dashed=1;html=1;rounded=0;strokeColor=#66B2FF;fontColor=#66B2FF;" edge="1" parent="1" target="IqBI72seaW1LNSzaQeUF-27">
          <mxGeometry width="50" height="50" relative="1" as="geometry">
            <mxPoint x="364" y="460" as="sourcePoint" />
            <mxPoint x="364" y="30" as="targetPoint" />
          </mxGeometry>
        </mxCell>
        <mxCell id="IqBI72seaW1LNSzaQeUF-29" value="" style="endArrow=none;dashed=1;html=1;dashPattern=1 3;strokeWidth=2;rounded=0;" edge="1" parent="1" source="IqBI72seaW1LNSzaQeUF-34" target="IqBI72seaW1LNSzaQeUF-27">
          <mxGeometry width="50" height="50" relative="1" as="geometry">
            <mxPoint x="310" y="129.64" as="sourcePoint" />
            <mxPoint x="570" y="130" as="targetPoint" />
          </mxGeometry>
        </mxCell>
        <mxCell id="IqBI72seaW1LNSzaQeUF-27" value="" style="ellipse;whiteSpace=wrap;html=1;aspect=fixed;fillColor=#dae8fc;strokeColor=#6c8ebf;" vertex="1" parent="1">
          <mxGeometry x="360" y="125" width="10" height="10" as="geometry" />
        </mxCell>
        <mxCell id="IqBI72seaW1LNSzaQeUF-31" value="" style="endArrow=none;dashed=1;html=1;dashPattern=1 3;strokeWidth=2;rounded=0;" edge="1" parent="1" source="IqBI72seaW1LNSzaQeUF-27" target="IqBI72seaW1LNSzaQeUF-30">
          <mxGeometry width="50" height="50" relative="1" as="geometry">
            <mxPoint x="370" y="130" as="sourcePoint" />
            <mxPoint x="570" y="130" as="targetPoint" />
          </mxGeometry>
        </mxCell>
        <mxCell id="IqBI72seaW1LNSzaQeUF-30" value="" style="ellipse;whiteSpace=wrap;html=1;aspect=fixed;fillColor=#f8cecc;strokeColor=#b85450;" vertex="1" parent="1">
          <mxGeometry x="395" y="125" width="10" height="10" as="geometry" />
        </mxCell>
        <mxCell id="IqBI72seaW1LNSzaQeUF-33" value="" style="endArrow=none;dashed=1;html=1;rounded=0;strokeColor=#66B2FF;fontColor=#66B2FF;" edge="1" parent="1" target="IqBI72seaW1LNSzaQeUF-32">
          <mxGeometry width="50" height="50" relative="1" as="geometry">
            <mxPoint x="490" y="460" as="sourcePoint" />
            <mxPoint x="490" y="30" as="targetPoint" />
          </mxGeometry>
        </mxCell>
        <mxCell id="IqBI72seaW1LNSzaQeUF-32" value="" style="ellipse;whiteSpace=wrap;html=1;aspect=fixed;fillColor=#dae8fc;strokeColor=#6c8ebf;" vertex="1" parent="1">
          <mxGeometry x="485" y="125" width="10" height="10" as="geometry" />
        </mxCell>
        <mxCell id="IqBI72seaW1LNSzaQeUF-35" value="" style="endArrow=none;dashed=1;html=1;dashPattern=1 3;strokeWidth=2;rounded=0;startArrow=classic;startFill=1;" edge="1" parent="1" target="IqBI72seaW1LNSzaQeUF-34">
          <mxGeometry width="50" height="50" relative="1" as="geometry">
            <mxPoint x="260" y="130" as="sourcePoint" />
            <mxPoint x="360" y="130" as="targetPoint" />
          </mxGeometry>
        </mxCell>
        <mxCell id="IqBI72seaW1LNSzaQeUF-34" value="" style="ellipse;whiteSpace=wrap;html=1;aspect=fixed;fillColor=#f8cecc;strokeColor=#b85450;" vertex="1" parent="1">
          <mxGeometry x="335" y="125" width="10" height="10" as="geometry" />
        </mxCell>
        <mxCell id="IqBI72seaW1LNSzaQeUF-36" value="" style="endArrow=classic;html=1;rounded=0;" edge="1" parent="1">
          <mxGeometry width="50" height="50" relative="1" as="geometry">
            <mxPoint x="600" y="90" as="sourcePoint" />
            <mxPoint x="600" y="10" as="targetPoint" />
          </mxGeometry>
        </mxCell>
        <mxCell id="IqBI72seaW1LNSzaQeUF-37" value="N" style="edgeLabel;html=1;align=center;verticalAlign=middle;resizable=0;points=[];" vertex="1" connectable="0" parent="IqBI72seaW1LNSzaQeUF-36">
          <mxGeometry x="-0.0786" relative="1" as="geometry">
            <mxPoint as="offset" />
          </mxGeometry>
        </mxCell>
        <mxCell id="IqBI72seaW1LNSzaQeUF-38" value="正方向" style="text;html=1;strokeColor=none;fillColor=none;align=center;verticalAlign=middle;whiteSpace=wrap;rounded=0;" vertex="1" parent="1">
          <mxGeometry x="570" y="115" width="60" height="30" as="geometry" />
        </mxCell>
        <mxCell id="IqBI72seaW1LNSzaQeUF-39" value="负方向" style="text;html=1;strokeColor=none;fillColor=none;align=center;verticalAlign=middle;whiteSpace=wrap;rounded=0;" vertex="1" parent="1">
          <mxGeometry x="210" y="95" width="60" height="30" as="geometry" />
        </mxCell>
        <mxCell id="IqBI72seaW1LNSzaQeUF-41" value="" style="shape=curlyBracket;whiteSpace=wrap;html=1;rounded=1;flipH=1;labelPosition=right;verticalLabelPosition=middle;align=left;verticalAlign=middle;direction=north;" vertex="1" parent="1">
          <mxGeometry x="400" y="240" width="90" height="20" as="geometry" />
        </mxCell>
        <mxCell id="IqBI72seaW1LNSzaQeUF-42" value="" style="shape=curlyBracket;whiteSpace=wrap;html=1;rounded=1;flipH=1;labelPosition=right;verticalLabelPosition=middle;align=left;verticalAlign=middle;direction=north;" vertex="1" parent="1">
          <mxGeometry x="342" y="300" width="20" height="20" as="geometry" />
        </mxCell>
        <mxCell id="IqBI72seaW1LNSzaQeUF-44" value="3、通过矢量方向和质心到线的垂直距离，得到向量距离，通过向量距离确认两组车道线各自的最外侧车道线" style="text;html=1;strokeColor=none;fillColor=none;align=center;verticalAlign=middle;whiteSpace=wrap;rounded=0;" vertex="1" parent="1">
          <mxGeometry x="550" y="330" width="260" height="30" as="geometry" />
        </mxCell>
        <mxCell id="IqBI72seaW1LNSzaQeUF-45" value="7m" style="text;html=1;strokeColor=none;fillColor=none;align=center;verticalAlign=middle;whiteSpace=wrap;rounded=0;" vertex="1" parent="1">
          <mxGeometry x="415" y="260" width="60" height="30" as="geometry" />
        </mxCell>
        <mxCell id="IqBI72seaW1LNSzaQeUF-46" value="1m" style="text;html=1;strokeColor=none;fillColor=none;align=center;verticalAlign=middle;whiteSpace=wrap;rounded=0;" vertex="1" parent="1">
          <mxGeometry x="322" y="320" width="60" height="30" as="geometry" />
        </mxCell>
        <mxCell id="IqBI72seaW1LNSzaQeUF-47" value="4、最外侧车道线进行比对，最大差值超过1米，则为较大横向变更" style="text;html=1;strokeColor=none;fillColor=none;align=center;verticalAlign=middle;whiteSpace=wrap;rounded=0;" vertex="1" parent="1">
          <mxGeometry x="550" y="390" width="260" height="30" as="geometry" />
        </mxCell>
        <mxCell id="IqBI72seaW1LNSzaQeUF-49" value="&lt;h1 style=&quot;border-color: var(--border-color); text-align: left;&quot;&gt;道路横向变更特征&lt;/h1&gt;" style="text;html=1;strokeColor=none;fillColor=none;align=center;verticalAlign=middle;whiteSpace=wrap;rounded=0;" vertex="1" parent="1">
          <mxGeometry x="50" y="230" width="200" height="30" as="geometry" />
        </mxCell>
        <mxCell id="IqBI72seaW1LNSzaQeUF-50" value="&lt;h1 style=&quot;border-color: var(--border-color); text-align: left;&quot;&gt;道路纵向变更特征&lt;/h1&gt;" style="text;html=1;strokeColor=none;fillColor=none;align=center;verticalAlign=middle;whiteSpace=wrap;rounded=0;" vertex="1" parent="1">
          <mxGeometry x="50" y="830" width="200" height="30" as="geometry" />
        </mxCell>
        <mxCell id="IqBI72seaW1LNSzaQeUF-51" value="" style="rounded=0;whiteSpace=wrap;html=1;" vertex="1" parent="1">
          <mxGeometry x="370" y="690" width="120" height="60" as="geometry" />
        </mxCell>
        <mxCell id="IqBI72seaW1LNSzaQeUF-52" value="Mark(人行横道)" style="text;html=1;strokeColor=none;fillColor=none;align=center;verticalAlign=middle;whiteSpace=wrap;rounded=0;" vertex="1" parent="1">
          <mxGeometry x="370" y="650" width="100" height="30" as="geometry" />
        </mxCell>
        <mxCell id="IqBI72seaW1LNSzaQeUF-53" value="" style="ellipse;whiteSpace=wrap;html=1;aspect=fixed;" vertex="1" parent="1">
          <mxGeometry x="425" y="715" width="10" height="10" as="geometry" />
        </mxCell>
        <mxCell id="IqBI72seaW1LNSzaQeUF-54" value="质心" style="text;html=1;strokeColor=none;fillColor=none;align=center;verticalAlign=middle;whiteSpace=wrap;rounded=0;" vertex="1" parent="1">
          <mxGeometry x="420" y="695" width="70" height="30" as="geometry" />
        </mxCell>
        <mxCell id="IqBI72seaW1LNSzaQeUF-55" value="" style="endArrow=none;html=1;rounded=0;strokeWidth=2;strokeColor=#FF3333;" edge="1" parent="1">
          <mxGeometry width="50" height="50" relative="1" as="geometry">
            <mxPoint x="720" y="630" as="sourcePoint" />
            <mxPoint x="680" y="630" as="targetPoint" />
          </mxGeometry>
        </mxCell>
        <mxCell id="IqBI72seaW1LNSzaQeUF-56" value="变更前车道线" style="text;html=1;strokeColor=none;fillColor=none;align=center;verticalAlign=middle;whiteSpace=wrap;rounded=0;" vertex="1" parent="1">
          <mxGeometry x="730" y="610" width="90" height="30" as="geometry" />
        </mxCell>
        <mxCell id="IqBI72seaW1LNSzaQeUF-57" value="" style="endArrow=none;html=1;rounded=0;strokeWidth=2;strokeColor=#66B2FF;" edge="1" parent="1">
          <mxGeometry width="50" height="50" relative="1" as="geometry">
            <mxPoint x="720" y="670" as="sourcePoint" />
            <mxPoint x="680" y="670" as="targetPoint" />
          </mxGeometry>
        </mxCell>
        <mxCell id="IqBI72seaW1LNSzaQeUF-58" value="变更后车道线" style="text;html=1;strokeColor=none;fillColor=none;align=center;verticalAlign=middle;whiteSpace=wrap;rounded=0;" vertex="1" parent="1">
          <mxGeometry x="730" y="650" width="90" height="30" as="geometry" />
        </mxCell>
        <mxCell id="IqBI72seaW1LNSzaQeUF-59" value="" style="endArrow=none;dashed=1;html=1;rounded=0;" edge="1" parent="1">
          <mxGeometry width="50" height="50" relative="1" as="geometry">
            <mxPoint x="680" y="700" as="sourcePoint" />
            <mxPoint x="720" y="700" as="targetPoint" />
          </mxGeometry>
        </mxCell>
        <mxCell id="IqBI72seaW1LNSzaQeUF-60" value="对应线段的延长线" style="text;html=1;strokeColor=none;fillColor=none;align=center;verticalAlign=middle;whiteSpace=wrap;rounded=0;" vertex="1" parent="1">
          <mxGeometry x="730" y="685" width="100" height="30" as="geometry" />
        </mxCell>
        <mxCell id="IqBI72seaW1LNSzaQeUF-75" value="" style="endArrow=none;html=1;rounded=0;strokeWidth=2;strokeColor=#FF3333;" edge="1" parent="1">
          <mxGeometry width="50" height="50" relative="1" as="geometry">
            <mxPoint x="364.64" y="960" as="sourcePoint" />
            <mxPoint x="364.64" y="780" as="targetPoint" />
          </mxGeometry>
        </mxCell>
        <mxCell id="IqBI72seaW1LNSzaQeUF-76" value="" style="endArrow=none;html=1;rounded=0;strokeWidth=2;strokeColor=#FF3333;" edge="1" parent="1">
          <mxGeometry width="50" height="50" relative="1" as="geometry">
            <mxPoint x="494.28999999999996" y="960" as="sourcePoint" />
            <mxPoint x="494.28999999999996" y="780" as="targetPoint" />
          </mxGeometry>
        </mxCell>
        <mxCell id="IqBI72seaW1LNSzaQeUF-78" value="" style="endArrow=none;html=1;rounded=0;strokeWidth=2;strokeColor=#66B2FF;" edge="1" parent="1">
          <mxGeometry width="50" height="50" relative="1" as="geometry">
            <mxPoint x="489" y="959" as="sourcePoint" />
            <mxPoint x="490" y="870" as="targetPoint" />
          </mxGeometry>
        </mxCell>
        <mxCell id="IqBI72seaW1LNSzaQeUF-79" value="" style="shape=curlyBracket;whiteSpace=wrap;html=1;rounded=1;flipH=1;labelPosition=right;verticalLabelPosition=middle;align=left;verticalAlign=middle;direction=east;" vertex="1" parent="1">
          <mxGeometry x="445" y="780" width="20" height="90" as="geometry" />
        </mxCell>
        <mxCell id="IqBI72seaW1LNSzaQeUF-81" value="7m" style="text;html=1;strokeColor=none;fillColor=none;align=center;verticalAlign=middle;whiteSpace=wrap;rounded=0;" vertex="1" parent="1">
          <mxGeometry x="445" y="810" width="60" height="30" as="geometry" />
        </mxCell>
        <mxCell id="IqBI72seaW1LNSzaQeUF-86" value="" style="endArrow=none;html=1;rounded=0;strokeWidth=2;strokeColor=#66B2FF;" edge="1" parent="1">
          <mxGeometry width="50" height="50" relative="1" as="geometry">
            <mxPoint x="370" y="960" as="sourcePoint" />
            <mxPoint x="370" y="870" as="targetPoint" />
          </mxGeometry>
        </mxCell>
        <mxCell id="IqBI72seaW1LNSzaQeUF-90" value="" style="endArrow=none;dashed=1;html=1;rounded=0;strokeColor=#66B2FF;fontColor=#66B2FF;" edge="1" parent="1" source="IqBI72seaW1LNSzaQeUF-67">
          <mxGeometry width="50" height="50" relative="1" as="geometry">
            <mxPoint x="429.5" y="960" as="sourcePoint" />
            <mxPoint x="430.5" y="590" as="targetPoint" />
          </mxGeometry>
        </mxCell>
        <mxCell id="IqBI72seaW1LNSzaQeUF-91" value="" style="endArrow=none;dashed=1;html=1;rounded=0;strokeColor=#66B2FF;fontColor=#66B2FF;" edge="1" parent="1">
          <mxGeometry width="50" height="50" relative="1" as="geometry">
            <mxPoint x="370" y="870" as="sourcePoint" />
            <mxPoint x="490" y="870" as="targetPoint" />
          </mxGeometry>
        </mxCell>
        <mxCell id="IqBI72seaW1LNSzaQeUF-92" value="" style="endArrow=none;dashed=1;html=1;rounded=0;strokeColor=#66B2FF;fontColor=#66B2FF;" edge="1" parent="1" target="IqBI72seaW1LNSzaQeUF-68">
          <mxGeometry width="50" height="50" relative="1" as="geometry">
            <mxPoint x="429.5" y="960" as="sourcePoint" />
            <mxPoint x="430.5" y="590" as="targetPoint" />
          </mxGeometry>
        </mxCell>
        <mxCell id="IqBI72seaW1LNSzaQeUF-68" value="" style="ellipse;whiteSpace=wrap;html=1;aspect=fixed;fillColor=#dae8fc;strokeColor=#6c8ebf;" vertex="1" parent="1">
          <mxGeometry x="425" y="865" width="10" height="10" as="geometry" />
        </mxCell>
        <mxCell id="IqBI72seaW1LNSzaQeUF-93" value="" style="endArrow=none;dashed=1;html=1;rounded=0;strokeColor=#b85450;fontColor=#66B2FF;fillColor=#f8cecc;" edge="1" parent="1">
          <mxGeometry width="50" height="50" relative="1" as="geometry">
            <mxPoint x="370" y="780" as="sourcePoint" />
            <mxPoint x="490" y="780" as="targetPoint" />
          </mxGeometry>
        </mxCell>
        <mxCell id="IqBI72seaW1LNSzaQeUF-94" value="" style="endArrow=none;dashed=1;html=1;rounded=0;strokeColor=#66B2FF;fontColor=#66B2FF;" edge="1" parent="1" source="IqBI72seaW1LNSzaQeUF-68" target="IqBI72seaW1LNSzaQeUF-67">
          <mxGeometry width="50" height="50" relative="1" as="geometry">
            <mxPoint x="430" y="865" as="sourcePoint" />
            <mxPoint x="430.5" y="590" as="targetPoint" />
          </mxGeometry>
        </mxCell>
        <mxCell id="IqBI72seaW1LNSzaQeUF-67" value="" style="ellipse;whiteSpace=wrap;html=1;aspect=fixed;fillColor=#f8cecc;strokeColor=#b85450;" vertex="1" parent="1">
          <mxGeometry x="425" y="775" width="10" height="10" as="geometry" />
        </mxCell>
        <mxCell id="IqBI72seaW1LNSzaQeUF-95" value="1、取变更后一根车道的中线作为参考线" style="text;html=1;strokeColor=none;fillColor=none;align=center;verticalAlign=middle;whiteSpace=wrap;rounded=0;" vertex="1" parent="1">
          <mxGeometry x="567" y="840" width="240" height="30" as="geometry" />
        </mxCell>
        <mxCell id="IqBI72seaW1LNSzaQeUF-96" value="2、选取变化前后车道线最靠近质心位置的端点作为后续比对点" style="text;html=1;strokeColor=none;fillColor=none;align=center;verticalAlign=middle;whiteSpace=wrap;rounded=0;" vertex="1" parent="1">
          <mxGeometry x="580" y="910" width="260" height="30" as="geometry" />
        </mxCell>
        <mxCell id="IqBI72seaW1LNSzaQeUF-97" value="3、将变化前后的比对点向参考线做垂线，得到垂足" style="text;html=1;strokeColor=none;fillColor=none;align=center;verticalAlign=middle;whiteSpace=wrap;rounded=0;" vertex="1" parent="1">
          <mxGeometry x="580" y="980" width="260" height="30" as="geometry" />
        </mxCell>
        <mxCell id="IqBI72seaW1LNSzaQeUF-98" value="4、所有垂足之间的最大间距超过5米则说明纵向变化较大" style="text;html=1;strokeColor=none;fillColor=none;align=center;verticalAlign=middle;whiteSpace=wrap;rounded=0;" vertex="1" parent="1">
          <mxGeometry x="580" y="1040" width="260" height="30" as="geometry" />
        </mxCell>
      </root>
    </mxGraphModel>
  </diagram>
</mxfile>
